# xmcd CD database file
#
# Track frame offsets:
#	150
#	16128
#	42640
#	54468
#	89172
#	112547
#	148626
#	190225
#	223125
#	249169
#	276631
#
# Disc length: 4193 seconds
#
# Revision: 1
# Processed by: cddbd v1.4PL0 Copyright (c) Steve Scherf et al.
# Submitted via: CDex 1.50Beta5
#
DISCID=a1105f0b
DTITLE=United States Air Force Airmen of Note - Invitation
DYEAR=1999
DGENRE=Jazz
TTITLE0=It's All Right With Me
TTITLE1=Call Back
TTITLE2=Too Close for Comfort
TTITLE3=Invitation
TTITLE4=Body and Soul
TTITLE5=Mr. P.C.
TTITLE6=The Two FAces of Emily
TTITLE7=Little Sunflower
TTITLE8=Cherokee
TTITLE9=Wait and See
TTITLE10=Caravan
EXTD=YEAR: 1999
EXTT0=
EXTT1=
EXTT2=
EXTT3=
EXTT4=
EXTT5=
EXTT6=
EXTT7=
EXTT8=
EXTT9=
EXTT10=
PLAYORDER=
